<?xml version="1.0" encoding="iso-8859-1"?>
<!-- Generator: Adobe Illustrator 16.0.0, SVG Export Plug-In . SVG Version: 6.00 Build 0)  -->
<!DOCTYPE svg PUBLIC "-//W3C//DTD SVG 1.1//EN" "http://www.w3.org/Graphics/SVG/1.1/DTD/svg11.dtd">
<svg version="1.1" id="Capa_1" xmlns="http://www.w3.org/2000/svg" xmlns:xlink="http://www.w3.org/1999/xlink" x="0px" y="0px"
	 width="512px" height="512px" viewBox="0 0 512 512" style="enable-background:new 0 0 512 512;" xml:space="preserve">
<g>
	<g>
		<rect x="128" y="256" width="256" height="32"/>
		<rect x="128" y="64" width="160" height="32"/>
		<rect x="128" y="192" width="256" height="32"/>
		<path d="M448,192V96L352,0H64v192L0,320v192h512V320L448,192z M64,320H35.781L64,263.562V320z M416,224v96h-32
			c0,70.688-57.312,128-128,128c-70.687,0-128-57.312-128-128H96v-96V32h242.75L416,109.25V224z M448,320v-56.438L476.219,320H448z"
			/>
		<rect x="128" y="128" width="224" height="32"/>
	</g>
</g>
<g>
</g>
<g>
</g>
<g>
</g>
<g>
</g>
<g>
</g>
<g>
</g>
<g>
</g>
<g>
</g>
<g>
</g>
<g>
</g>
<g>
</g>
<g>
</g>
<g>
</g>
<g>
</g>
<g>
</g>
</svg>
